<svg width="34" height="30" viewBox="0 0 34 30" version="1.1" xmlns="http://www.w3.org/2000/svg" xmlns:xlink="http://www.w3.org/1999/xlink"><defs><path d="M1.49 4.538l6.632 2.365a1 1 0 0 0 1.16-.376L13.175.85a1 1 0 0 1 1.65 0l3.893 5.676a1 1 0 0 0 1.16.376l6.633-2.365a1 1 0 0 1 1.317 1.137l-3.484 17.52a1 1 0 0 1-.98.805H4.636a1 1 0 0 1-.98-.805L.172 5.675a1 1 0 0 1 1.316-1.137z" id="a"/></defs><g stroke="none" stroke-width="1" fill="none" fill-rule="evenodd"><g><g><g><g transform="translate(3 3)"><mask id="b" fill="#fff"><use xlink:href="#a"/></mask><g><use fill="#FFB500" fill-rule="evenodd" xlink:href="#a"/><path stroke="#FFF" stroke-width="3" d="M8.263 5.36L11.938.004a2.5 2.5 0 0 1 4.124 0l3.675 5.358 6.27-2.236A2.5 2.5 0 0 1 29.3 5.968l-3.484 17.52a2.5 2.5 0 0 1-2.452 2.012H4.637a2.5 2.5 0 0 1-2.452-2.012l-3.484-17.52a2.5 2.5 0 0 1 3.292-2.843l6.27 2.236z"/></g><path fill="#FFCC29" opacity=".7" mask="url(#b)" d="M8 0h6v25H8z"/></g></g></g></g></g></svg>