<svg version="1.2" xmlns="http://www.w3.org/2000/svg" viewBox="0 0 78 62" width="78" height="62">
	<title>87938207afff1598611ba626a8c4827c-svg</title>
	<style>
		.s0 { fill: #eeeeee;stroke: #ffffff;stroke-width: 4 } 
		.s1 { fill: #ff4b4b } 
		.s2 { fill: #1cb0f6 } 
		.s3 { fill: #ffffff } 
	</style>
	<g id="Layer">
		<g id="en">
			<g id="Group">
				<path id="Rectangle-3" fill-rule="evenodd" class="s0" d="m61.4 2h-44.8c-5 0-6.7 0.6-8.5 1.5-2 1.1-3.5 2.6-4.6 4.6-0.9 1.8-1.5 3.5-1.5 8.5v28.8c0 5 0.6 6.7 1.5 8.5 1.1 2 2.6 3.5 4.6 4.6 1.8 0.9 3.5 1.5 8.5 1.5h44.8c5 0 6.7-0.6 8.5-1.5 2-1.1 3.5-2.6 4.6-4.6 0.9-1.8 1.5-3.5 1.5-8.5v-28.8c0-5-0.6-6.7-1.5-8.5-1.1-2-2.6-3.5-4.6-4.6-1.8-0.9-3.5-1.5-8.5-1.5z"/>
				<path id="Path" fill-rule="evenodd" class="s1" d="m16.6 4h44.8c4.4 0 6 0.5 7.6 1.3 1.6 0.9 2.8 2.1 3.7 3.7q0.2 0.5 0.5 1h-68.4q0.3-0.5 0.5-1c0.9-1.6 2.1-2.8 3.7-3.7 1.6-0.8 3.2-1.3 7.6-1.3z"/>
				<path id="Path" fill-rule="evenodd" class="s1" d="m74 16q0 0.3 0 0.6v5.4h-70v-5.4q0-0.3 0-0.6z"/>
				<path id="Path" class="s1" d="m74 28v6h-70v-6z"/>
				<path id="Path" fill-rule="evenodd" class="s1" d="m74 45.4q0 0.3 0 0.6h-70q0-0.3 0-0.6v-5.4h70z"/>
				<path id="Path" fill-rule="evenodd" class="s1" d="m73.2 52q-0.3 0.5-0.5 1c-0.9 1.6-2.1 2.8-3.7 3.7-1.6 0.8-3.2 1.3-7.6 1.3h-44.8c-4.4 0-6-0.5-7.6-1.3-1.6-0.9-2.8-2.1-3.7-3.7q-0.2-0.5-0.5-1z"/>
				<path id="Path" fill-rule="evenodd" class="s2" d="m16.6 4h22.4v24h-35v-11.4c0-4.4 0.5-6 1.3-7.6 0.9-1.6 2.1-2.8 3.7-3.7 1.6-0.8 3.2-1.3 7.6-1.3z"/>
				<path id="Star-Copy" class="s3" d="m31.8 13.6l-1.3 0.7c-0.4 0.2-0.9 0-1.1-0.4q-0.1-0.2-0.1-0.5l0.3-1.4q0-0.2-0.1-0.4l-1.1-1c-0.3-0.3-0.3-0.8 0-1.1q0.2-0.2 0.5-0.3l1.4-0.2q0.2 0 0.3-0.2l0.7-1.3c0.2-0.4 0.7-0.6 1.1-0.4q0.2 0.1 0.3 0.4l0.7 1.3q0.1 0.2 0.3 0.2l1.4 0.2c0.5 0.1 0.8 0.5 0.7 0.9q0 0.3-0.2 0.5l-1.1 1q-0.1 0.2-0.1 0.4l0.3 1.4c0 0.5-0.3 0.9-0.7 1q-0.3 0-0.5-0.1l-1.3-0.7q-0.2-0.1-0.4 0z"/>
				<path id="Star-Copy-4" class="s3" d="m31.8 23.6l-1.3 0.7c-0.4 0.2-0.9 0-1.1-0.4q-0.1-0.2-0.1-0.5l0.3-1.4q0-0.2-0.1-0.4l-1.1-1c-0.3-0.3-0.3-0.8 0-1.1q0.2-0.2 0.5-0.3l1.4-0.2q0.2 0 0.3-0.2l0.7-1.3c0.2-0.4 0.7-0.6 1.1-0.4q0.2 0.1 0.3 0.4l0.7 1.3q0.1 0.2 0.3 0.2l1.4 0.2c0.5 0.1 0.8 0.5 0.7 0.9q0 0.3-0.2 0.5l-1.1 1q-0.1 0.2-0.1 0.4l0.3 1.4c0 0.5-0.3 0.9-0.7 1q-0.3 0-0.5-0.1l-1.3-0.7q-0.2-0.1-0.4 0z"/>
				<path id="Star-Copy-2" class="s3" d="m21.8 13.6l-1.3 0.7c-0.4 0.2-0.9 0-1.1-0.4q-0.1-0.2-0.1-0.5l0.3-1.4q0-0.2-0.1-0.4l-1.1-1c-0.3-0.3-0.3-0.8 0-1.1q0.2-0.2 0.5-0.3l1.4-0.2q0.2 0 0.3-0.2l0.7-1.3c0.2-0.4 0.7-0.6 1.1-0.4q0.2 0.1 0.3 0.4l0.7 1.3q0.1 0.2 0.3 0.2l1.4 0.2c0.5 0.1 0.8 0.5 0.7 0.9q0 0.3-0.2 0.5l-1.1 1q-0.1 0.2-0.1 0.4l0.3 1.4c0 0.5-0.3 0.9-0.7 1q-0.3 0-0.5-0.1l-1.3-0.7q-0.2-0.1-0.4 0z"/>
				<path id="Star-Copy-5" class="s3" d="m21.8 23.6l-1.3 0.7c-0.4 0.2-0.9 0-1.1-0.4q-0.1-0.2-0.1-0.5l0.3-1.4q0-0.2-0.1-0.4l-1.1-1c-0.3-0.3-0.3-0.8 0-1.1q0.2-0.2 0.5-0.3l1.4-0.2q0.2 0 0.3-0.2l0.7-1.3c0.2-0.4 0.7-0.6 1.1-0.4q0.2 0.1 0.3 0.4l0.7 1.3q0.1 0.2 0.3 0.2l1.4 0.2c0.5 0.1 0.8 0.5 0.7 0.9q0 0.3-0.2 0.5l-1.1 1q-0.1 0.2-0.1 0.4l0.3 1.4c0 0.5-0.3 0.9-0.7 1q-0.3 0-0.5-0.1l-1.3-0.7q-0.2-0.1-0.4 0z"/>
				<path id="Star-Copy-3" class="s3" d="m11.8 13.6l-1.3 0.7c-0.4 0.2-0.9 0-1.1-0.4q-0.1-0.2-0.1-0.5l0.3-1.4q0-0.2-0.1-0.4l-1.1-1c-0.3-0.3-0.3-0.8 0-1.1q0.2-0.2 0.5-0.3l1.4-0.2q0.2 0 0.3-0.2l0.7-1.3c0.2-0.4 0.7-0.6 1.1-0.4q0.2 0.1 0.3 0.4l0.7 1.3q0.1 0.2 0.3 0.2l1.4 0.2c0.5 0.1 0.8 0.5 0.7 0.9q0 0.3-0.2 0.5l-1.1 1q-0.1 0.2-0.1 0.4l0.3 1.4c0 0.5-0.3 0.9-0.7 1q-0.3 0-0.5-0.1l-1.3-0.7q-0.2-0.1-0.4 0z"/>
				<path id="Star-Copy-6" class="s3" d="m11.8 23.6l-1.3 0.7c-0.4 0.2-0.9 0-1.1-0.4q-0.1-0.2-0.1-0.5l0.3-1.4q0-0.2-0.1-0.4l-1.1-1c-0.3-0.3-0.3-0.8 0-1.1q0.2-0.2 0.5-0.3l1.4-0.2q0.2 0 0.3-0.2l0.7-1.3c0.2-0.4 0.7-0.6 1.1-0.4q0.2 0.1 0.3 0.4l0.7 1.3q0.1 0.2 0.3 0.2l1.4 0.2c0.5 0.1 0.8 0.5 0.7 0.9q0 0.3-0.2 0.5l-1.1 1q-0.1 0.2-0.1 0.4l0.3 1.4c0 0.5-0.3 0.9-0.7 1q-0.3 0-0.5-0.1l-1.3-0.7q-0.2-0.1-0.4 0z"/>
			</g>
		</g>
	</g>
</svg>