<svg version="1.2" xmlns="http://www.w3.org/2000/svg" viewBox="0 0 78 62" width="78" height="62">
	<title>87938207afff1598611ba626a8c4827c-svg</title>
	<style>
		.s0 { fill: #ff4b4b;stroke: #ffffff;stroke-width: 4 } 
		.s1 { fill: #ffc800 } 
		.s2 { fill: #ffffff } 
		.s3 { fill: #ff4b4b } 
	</style>
	<g id="Layer">
		<g id="es">
			<g id="Group">
				<path id="Rectangle-3" fill-rule="evenodd" class="s0" d="m61.4 2h-44.8c-5 0-6.7 0.6-8.5 1.5-2 1.1-3.5 2.6-4.6 4.6-0.9 1.8-1.5 3.5-1.5 8.5v28.8c0 5 0.6 6.7 1.5 8.5 1.1 2 2.6 3.5 4.6 4.6 1.8 0.9 3.5 1.5 8.5 1.5h44.8c5 0 6.7-0.6 8.5-1.5 2-1.1 3.5-2.6 4.6-4.6 0.9-1.8 1.5-3.5 1.5-8.5v-28.8c0-5-0.6-6.7-1.5-8.5-1.1-2-2.6-3.5-4.6-4.6-1.8-0.9-3.5-1.5-8.5-1.5z"/>
				<path id="Rectangle-4" class="s1" d="m4 19.4h70v23.2h-70z"/>
				<path id="Rectangle-14" fill-rule="evenodd" class="s2" d="m31.2 25.2c1.1 0 2 0.9 2 2v7.6c0 1.1-0.9 2-2 2-1.1 0-1.9-0.9-1.9-2v-7.6c0-1.1 0.8-2 1.9-2z"/>
				<path id="Rectangle-14-Copy" fill-rule="evenodd" class="s2" d="m11.8 25.2c1.1 0 1.9 0.9 1.9 2v7.6c0 1.1-0.8 2-1.9 2-1.1 0-2-0.9-2-2v-7.6c0-1.1 0.9-2 2-2z"/>
				<path id="Rectangle-15" fill-rule="evenodd" class="s3" d="m17.4 23.3h8.2c0.9 0 1.7 0.8 1.7 1.7v7.9c0 3.2-2.6 5.8-5.8 5.8-3.2 0-5.8-2.6-5.8-5.8v-7.9c0-0.9 0.8-1.7 1.7-1.7z"/>
			</g>
		</g>
	</g>
</svg>