<svg version="1.2" xmlns="http://www.w3.org/2000/svg" viewBox="0 0 78 62" width="78" height="62">
	<title>87938207afff1598611ba626a8c4827c-svg</title>
	<style>
		.s0 { fill: #78c800;stroke: #ffffff;stroke-width: 4 } 
		.s1 { fill: #ffc800 } 
		.s2 { fill: #1cb0f6 } 
		.s3 { fill: #ffffff } 
	</style>
	<g id="portugues">
		<g id="pt-copy">
			<g id="Group">
				<path id="Rectangle-3" class="s0" d="m61.4 2h-44.8c-5 0-6.7 0.6-8.5 1.5-2 1.1-3.5 2.6-4.6 4.6-0.9 1.8-1.5 3.5-1.5 8.5v28.8c0 5 0.6 6.7 1.5 8.5 1.1 2 2.6 3.5 4.6 4.6 1.8 0.9 3.5 1.5 8.5 1.5h44.8c5 0 6.7-0.6 8.5-1.5 2-1.1 3.5-2.6 4.6-4.6 0.9-1.8 1.5-3.5 1.5-8.5v-28.8c0-5-0.6-6.7-1.5-8.5-1.1-2-2.6-3.5-4.6-4.6-1.8-0.9-3.5-1.5-8.5-1.5z"/>
				<path id="Rectangle" fill-rule="evenodd" class="s1" d="m10.1 30.4l27.7-20.2c0.7-0.5 1.7-0.5 2.4 0l27.7 20.2c0.9 0.6 1.1 1.9 0.4 2.8q-0.2 0.2-0.4 0.4l-27.7 20.1c-0.7 0.5-1.7 0.5-2.4 0l-27.7-20.1c-0.9-0.6-1.1-1.9-0.4-2.8q0.2-0.2 0.4-0.4z"/>
				<path id="Mask" class="s2" d="m39 44c-6.6 0-12-5.4-12-12 0-6.6 5.4-12 12-12 6.6 0 12 5.4 12 12 0 6.6-5.4 12-12 12z"/>
				<path id="Path" fill-rule="evenodd" class="s3" d="m27 31.2c0.1-1.5 0.5-3 1.1-4.3l22.9 5.7c-0.1 1.5-0.5 3-1.1 4.3z"/>
			</g>
		</g>
	</g>
</svg>