<svg version="1.2" xmlns="http://www.w3.org/2000/svg" viewBox="0 0 78 62" width="78" height="62">
	<title>87938207afff1598611ba626a8c4827c-svg</title>
	<style>
		.s0 { fill: #1cb0f6;stroke: #ffffff;stroke-width: 4 } 
		.s1 { fill: #ff4b4b } 
		.s2 { fill: #eeeeee } 
	</style>
	<g id="russkij">
		<g id="ru">
			<g id="Group">
				<path id="Rectangle-3" class="s0" d="m61.4 2h-44.8c-5 0-6.7 0.6-8.5 1.5-2 1.1-3.5 2.6-4.6 4.6-0.9 1.8-1.5 3.5-1.5 8.5v28.8c0 5 0.6 6.7 1.5 8.5 1.1 2 2.6 3.5 4.6 4.6 1.8 0.9 3.5 1.5 8.5 1.5h44.8c5 0 6.7-0.6 8.5-1.5 2-1.1 3.5-2.6 4.6-4.6 0.9-1.8 1.5-3.5 1.5-8.5v-28.8c0-5-0.6-6.7-1.5-8.5-1.1-2-2.6-3.5-4.6-4.6-1.8-0.9-3.5-1.5-8.5-1.5z"/>
				<path id="Path" class="s1" d="m74 40v5.4c0 4.4-0.5 6-1.3 7.6-0.9 1.6-2.1 2.8-3.7 3.7-1.6 0.8-3.2 1.3-7.6 1.3h-44.8c-4.4 0-6-0.5-7.6-1.3-1.6-0.9-2.8-2.1-3.7-3.7-0.8-1.6-1.3-3.2-1.3-7.6v-5.4z"/>
				<path id="Path" class="s2" d="m16.6 4h44.8c4.4 0 6 0.5 7.6 1.3 1.6 0.9 2.8 2.1 3.7 3.7 0.8 1.6 1.3 3.2 1.3 7.6v5.4h-70v-5.4c0-4.4 0.5-6 1.3-7.6 0.9-1.6 2.1-2.8 3.7-3.7 1.6-0.8 3.2-1.3 7.6-1.3z"/>
			</g>
		</g>
	</g>
</svg>