<svg version="1.2" xmlns="http://www.w3.org/2000/svg" viewBox="0 0 78 62" width="78" height="62">
	<title>87938207afff1598611ba626a8c4827c-svg</title>
	<style>
		.s0 { fill: #1cb0f6;stroke: #ffffff;stroke-width: 4 } 
		.s1 { fill: #ffc800 } 
	</style>
	<g id="svenska">
		<g id="sv">
			<g id="Group-10">
				<path id="Rectangle-3" class="s0" d="m61.4 2h-44.8c-5 0-6.7 0.6-8.5 1.5-2 1.1-3.5 2.6-4.6 4.6-0.9 1.8-1.5 3.5-1.5 8.5v28.8c0 5 0.6 6.7 1.5 8.5 1.1 2 2.6 3.5 4.6 4.6 1.8 0.9 3.5 1.5 8.5 1.5h44.8c5 0 6.7-0.6 8.5-1.5 2-1.1 3.5-2.6 4.6-4.6 0.9-1.8 1.5-3.5 1.5-8.5v-28.8c0-5-0.6-6.7-1.5-8.5-1.1-2-2.6-3.5-4.6-4.6-1.8-0.9-3.5-1.5-8.5-1.5z"/>
				<path id="Combined-Shape" class="s1" d="m33 4v20h41v14h-41v20h-14v-20h-15v-14h15v-20z"/>
			</g>
		</g>
	</g>
</svg>